<svg width="20" height="15" viewBox="0 0 20 15" fill="none" xmlns="http://www.w3.org/2000/svg">
<path d="M16.9312 1.24868C16.9376 1.24868 16.946 1.24868 16.9524 1.24868C17.2889 1.24868 17.5661 1.52593 17.5661 1.86243C17.5661 1.86878 17.5661 1.87725 17.5661 1.8836V11.2381H2.49735V1.8836C2.49735 1.87725 2.49735 1.86878 2.49735 1.86243C2.49735 1.52593 2.7746 1.24868 3.11111 1.24868C3.11746 1.24868 3.12593 1.24868 3.13228 1.24868H16.9312ZM3.13228 0C2.09947 0 1.24868 0.850794 1.24868 1.8836V12.4656H18.7513V1.8836C18.7513 0.874074 17.9407 0.0338624 16.9312 0H3.13228ZM0 13.1217H20C20 14.1545 19.1492 15.0053 18.1164 15.0053H1.8836C0.850794 15.0053 0 14.1545 0 13.1217Z" fill="black"/>
<path d="M12.4233 9.37566H11.1534V6.79365H8.78307V9.37566H7.51323V3.38625H8.78307V5.73545H11.1534V3.38625H12.4233V9.37566Z" fill="black"/>
</svg>
