<?xml version="1.0" encoding="UTF-8" standalone="no"?>
<!DOCTYPE svg PUBLIC "-//W3C//DTD SVG 1.1//EN" "http://www.w3.org/Graphics/SVG/1.1/DTD/svg11.dtd">
<svg width="100%" height="100%" viewBox="0 0 612 459" version="1.1" xmlns="http://www.w3.org/2000/svg" xmlns:xlink="http://www.w3.org/1999/xlink" xml:space="preserve" xmlns:serif="http://www.serif.com/" style="fill-rule:evenodd;clip-rule:evenodd;stroke-linejoin:round;stroke-miterlimit:2;">
    <g transform="matrix(5.55556,0,0,5.55556,0,0)">
        <g id="F6" transform="matrix(11.6402,0,0,11.6402,1.42109e-14,0)">
            <g id="Layer_2">
                <g id="F61" serif:id="F6">
                    <path d="M8,0.59C8.003,0.59 8.007,0.59 8.01,0.59C8.169,0.59 8.3,0.721 8.3,0.88C8.3,0.883 8.3,0.887 8.3,0.89L8.3,5.31L1.18,5.31L1.18,0.89C1.18,0.887 1.18,0.883 1.18,0.88C1.18,0.721 1.311,0.59 1.47,0.59C1.473,0.59 1.477,0.59 1.48,0.59L8,0.59ZM1.48,0C0.992,0 0.59,0.402 0.59,0.89L0.59,5.89L8.86,5.89L8.86,0.89C8.86,0.413 8.477,0.016 8,-0L1.48,0ZM0,6.2L9.45,6.2C9.45,6.688 9.048,7.09 8.56,7.09L0.89,7.09C0.402,7.09 0,6.688 -0,6.2" style="fill-rule:nonzero;"/>
                    <path d="M5,4.22L4.4,4.22L4.4,1.89L3.63,1.89L3.63,1.38L5.77,1.38L5.77,1.89L5,1.89L5,4.22Z" style="fill-rule:nonzero;"/>
                </g>
            </g>
        </g>
    </g>
</svg>
