<svg width="20" height="15" viewBox="0 0 20 15" fill="none" xmlns="http://www.w3.org/2000/svg">
<path d="M16.9066 1.24686C16.913 1.24686 16.9214 1.24686 16.9278 1.24686C17.2638 1.24686 17.5406 1.52371 17.5406 1.85973C17.5406 1.86607 17.5406 1.87452 17.5406 1.88086V11.2218H2.49373V1.88086C2.49373 1.87452 2.49373 1.86607 2.49373 1.85973C2.49373 1.52371 2.77057 1.24686 3.10659 1.24686C3.11293 1.24686 3.12139 1.24686 3.12773 1.24686H16.9066ZM3.12773 0C2.09642 0 1.24686 0.849558 1.24686 1.88086V12.4475H18.7241V1.88086C18.7241 0.872804 17.9147 0.0338132 16.9066 0H3.12773ZM0 13.1026H19.9709C19.9709 14.1339 19.1214 14.9835 18.0901 14.9835H1.88086C0.849558 14.9835 0 14.1339 0 13.1026Z" fill="black"/>
<path d="M10.5666 8.91825H9.29865V3.99419H7.67139V2.9164H12.1939V3.99419H10.5666V8.91825Z" fill="black"/>
</svg>
